<svg width="26" height="26" viewBox="0 0 26 26" fill="none" xmlns="http://www.w3.org/2000/svg">
<path d="M13.4755 3.08156L15.2186 8.4463C15.4195 9.06434 15.9954 9.48278 16.6452 9.48278H22.2861C22.7704 9.48278 22.9718 10.1026 22.5799 10.3873L18.0164 13.7029C17.4907 14.0848 17.2707 14.7619 17.4715 15.3799L19.2146 20.7447C19.3643 21.2053 18.8371 21.5884 18.4452 21.3037L13.8817 17.9881C13.3559 17.6061 12.6441 17.6061 12.1183 17.9881L7.5548 21.3037C7.16294 21.5884 6.6357 21.2053 6.78538 20.7447L8.52849 15.3799C8.7293 14.7619 8.50931 14.0848 7.98358 13.7029L3.42006 10.3873C3.0282 10.1026 3.22959 9.48278 3.71395 9.48278H9.35477C10.0046 9.48278 10.5805 9.06434 10.7814 8.4463L12.5245 3.08156C12.6741 2.6209 13.3259 2.62091 13.4755 3.08156Z" fill="#2B3D87" stroke="#5967C9"/>
</svg>
