<svg width="24" height="24" viewBox="0 0 24 24" fill="none" xmlns="http://www.w3.org/2000/svg">
<g clip-path="url(#clip0_1_215)">
<path d="M7.33906 10.085L11.9998 5.42436L16.663 10.0874L19.375 7.37544L11.9998 0L4.62718 7.37304L7.33906 10.085ZM6.86646e-05 11.9996L2.71214 9.28754L5.42404 11.9995L2.71199 14.7115L6.86646e-05 11.9996ZM7.33906 13.915L11.9998 18.5756L16.6629 13.9127L19.3763 16.6232L19.375 16.6247L11.9998 24L4.62694 16.6272L4.6231 16.6234L7.33906 13.915ZM18.5761 12.0011L21.2882 9.28904L24.0001 12.0009L21.288 14.713L18.5761 12.0011Z" fill="#F3BA2F"/>
<path d="M14.7502 11.9985H14.7514L11.9994 9.24658L9.96568 11.2803H9.96556L9.73192 11.5141L9.25 11.9961L9.24616 11.9998L9.25 12.0038L11.9994 14.7533L14.7514 12.0014L14.7527 11.9998L14.7502 11.9985" fill="#F3BA2F"/>
</g>
<defs>
<clipPath id="clip0_1_215">
<rect width="24" height="24" fill="white"/>
</clipPath>
</defs>
</svg>
