<svg id="eJo8egPhViq1" xmlns="http://www.w3.org/2000/svg" xmlns:xlink="http://www.w3.org/1999/xlink" viewBox="0 0 1440 800" shape-rendering="geometricPrecision" text-rendering="geometricPrecision"><style><![CDATA[#eJo8egPhViq2_to {animation: eJo8egPhViq2_to__to 3000ms linear infinite normal forwards}@keyframes eJo8egPhViq2_to__to { 0% {transform: translate(-379.738826px,115.16px)} 66.666667% {transform: translate(1846.212394px,115.16px)} 100% {transform: translate(1846.212394px,115.16px)}} #eJo8egPhViq3_to {animation: eJo8egPhViq3_to__to 3000ms linear infinite normal forwards}@keyframes eJo8egPhViq3_to__to { 0% {transform: translate(-421.954701px,700.76001px)} 73.333333% {transform: translate(1846.218372px,700.76001px)} 100% {transform: translate(1846.218372px,700.76001px)}} #eJo8egPhViq4_to {animation: eJo8egPhViq4_to__to 3000ms linear infinite normal forwards}@keyframes eJo8egPhViq4_to__to { 0% {transform: translate(-574.110254px,567.42099px)} 23.333333% {transform: translate(-574.110254px,567.42099px)} 63.333333% {transform: translate(1999.938527px,567.42099px)} 100% {transform: translate(1999.938527px,567.42099px)}} #eJo8egPhViq5_to {animation: eJo8egPhViq5_to__to 3000ms linear infinite normal forwards}@keyframes eJo8egPhViq5_to__to { 0% {transform: translate(-306.414261px,208.940002px)} 33.333333% {transform: translate(-306.414261px,208.940002px)} 96.666667% {transform: translate(1747.584373px,208.940002px)} 100% {transform: translate(1747.584373px,208.940002px)}} #eJo8egPhViq6_to {animation: eJo8egPhViq6_to__to 3000ms linear infinite normal forwards}@keyframes eJo8egPhViq6_to__to { 0% {transform: translate(-389.330287px,617.630005px)} 50% {transform: translate(-389.330287px,617.630005px)} 90% {transform: translate(1867.840445px,617.630005px)} 100% {transform: translate(1867.840445px,617.630005px)}} #eJo8egPhViq7_to {animation: eJo8egPhViq7_to__to 3000ms linear infinite normal forwards}@keyframes eJo8egPhViq7_to__to { 0% {transform: translate(-300.872602px,246.849991px)} 13.333333% {transform: translate(-300.872602px,246.849991px)} 83.333333% {transform: translate(1759.615203px,246.849991px)} 100% {transform: translate(1759.615203px,246.849991px)}}]]></style><defs><linearGradient id="eJo8egPhViq2-fill" x1="96.8661" y1="115.163" x2="829.503" y2="115.163" spreadMethod="pad" gradientUnits="userSpaceOnUse"><stop id="eJo8egPhViq2-fill-0" offset="0%" stop-color="rgba(38,44,56,0)"/><stop id="eJo8egPhViq2-fill-1" offset="50%" stop-color="rgb(0,152,255)"/><stop id="eJo8egPhViq2-fill-2" offset="100%" stop-color="rgb(0,240,233)"/></linearGradient><linearGradient id="eJo8egPhViq3-fill" x1="256.019" y1="700.768" x2="988.656" y2="700.768" spreadMethod="pad" gradientUnits="userSpaceOnUse"><stop id="eJo8egPhViq3-fill-0" offset="0%" stop-color="rgba(38,44,56,0)"/><stop id="eJo8egPhViq3-fill-1" offset="50%" stop-color="rgb(0,240,233)"/><stop id="eJo8egPhViq3-fill-2" offset="100%" stop-color="rgb(0,240,233)"/></linearGradient><linearGradient id="eJo8egPhViq4-fill" x1="15.937" y1="567.42" x2="1081.38" y2="567.42" spreadMethod="pad" gradientUnits="userSpaceOnUse"><stop id="eJo8egPhViq4-fill-0" offset="0%" stop-color="rgba(38,44,56,0)"/><stop id="eJo8egPhViq4-fill-1" offset="50%" stop-color="rgb(0,152,255)"/><stop id="eJo8egPhViq4-fill-2" offset="100%" stop-color="rgb(0,240,233)"/></linearGradient><linearGradient id="eJo8egPhViq5-fill" x1="434.294" y1="208.94" x2="969.673" y2="208.94" spreadMethod="pad" gradientUnits="userSpaceOnUse"><stop id="eJo8egPhViq5-fill-0" offset="0%" stop-color="rgba(38,44,56,0)"/><stop id="eJo8egPhViq5-fill-1" offset="50.75%" stop-color="rgb(255,11,83)"/><stop id="eJo8egPhViq5-fill-2" offset="100%" stop-color="rgb(255,139,13)"/></linearGradient><linearGradient id="eJo8egPhViq6-fill" x1="96.8661" y1="617.633" x2="808.353" y2="617.633" spreadMethod="pad" gradientUnits="userSpaceOnUse"><stop id="eJo8egPhViq6-fill-0" offset="0%" stop-color="rgba(38,44,56,0)"/><stop id="eJo8egPhViq6-fill-1" offset="50.75%" stop-color="rgb(255,11,83)"/><stop id="eJo8egPhViq6-fill-2" offset="100%" stop-color="rgb(255,139,13)"/></linearGradient><linearGradient id="eJo8egPhViq7-fill" x1="24.8693" y1="246.849" x2="560.249" y2="246.849" spreadMethod="pad" gradientUnits="userSpaceOnUse"><stop id="eJo8egPhViq7-fill-0" offset="0%" stop-color="rgba(38,44,56,0)"/><stop id="eJo8egPhViq7-fill-1" offset="50%" stop-color="rgb(255,11,83)"/><stop id="eJo8egPhViq7-fill-2" offset="100%" stop-color="rgb(255,11,83)"/></linearGradient></defs><g id="eJo8egPhViq2_to" transform="translate(-379.738826,115.16)"><path id="eJo8egPhViq2" d="M817.536,125.14L108.84,125.14C102.228,125.14,96.864,120.67,96.864,115.16C96.864,109.65,102.228,105.18,108.84,105.18L817.536,105.18C824.148,105.18,829.512,109.65,829.512,115.16C829.5,120.67,824.148,125.14,817.536,125.14Z" transform="translate(-463.188004,-115.16)" fill="url(#eJo8egPhViq2-fill)" stroke="none" stroke-width="1"/></g><g id="eJo8egPhViq3_to" transform="translate(-421.954701,700.76001)"><path id="eJo8egPhViq3" d="M976.68,710.74L267.996,710.74C261.384,710.74,256.02,706.27,256.02,700.76C256.02,695.25,261.384,690.78,267.996,690.78L976.68,690.78C983.292,690.78,988.656,695.25,988.656,700.76C988.656,706.28,983.292,710.74,976.68,710.74Z" transform="translate(-622.337982,-700.76001)" fill="url(#eJo8egPhViq3-fill)" stroke="none" stroke-width="1"/></g><g id="eJo8egPhViq4_to" transform="translate(-574.110254,567.42099)"><path id="eJo8egPhViq4" d="M1069.4,577.401L27.912,577.401C21.3,577.401,15.936,572.931,15.936,567.421C15.936,561.911,21.3,557.441,27.912,557.441L1069.42,557.441C1076.03,557.441,1081.39,561.911,1081.39,567.421C1081.38,572.931,1076.02,577.401,1069.4,577.401Z" transform="translate(-548.66299,-567.42099)" fill="url(#eJo8egPhViq4-fill)" stroke="none" stroke-width="1"/></g><g id="eJo8egPhViq5_to" transform="translate(-306.414261,208.940002)"><path id="eJo8egPhViq5" d="M957.696,218.92L446.256,218.92C439.644,218.92,434.28,214.45,434.28,208.94C434.28,203.43,439.644,198.96,446.256,198.96L957.696,198.96C964.308,198.96,969.672,203.43,969.672,208.94C969.672,214.45,964.308,218.92,957.696,218.92Z" transform="translate(-701.975983,-208.940002)" fill="url(#eJo8egPhViq5-fill)" stroke="none" stroke-width="1"/></g><g id="eJo8egPhViq6_to" transform="translate(-389.330287,617.630005)"><path id="eJo8egPhViq6" d="M796.38,627.61L108.84,627.61C102.228,627.61,96.864,623.14,96.864,617.63C96.864,612.12,102.228,607.65,108.84,607.65L796.38,607.65C802.992,607.65,808.356,612.12,808.356,617.63C808.356,623.14,802.992,627.61,796.38,627.61Z" transform="translate(-452.610001,-617.630005)" fill="url(#eJo8egPhViq6-fill)" stroke="none" stroke-width="1"/></g><g id="eJo8egPhViq7_to" transform="translate(-300.872602,246.849991)"><path id="eJo8egPhViq7" d="M548.28,256.83L36.84,256.83C30.228,256.83,24.864,252.36,24.864,246.85C24.864,241.34,30.228,236.87,36.84,236.87L548.28,236.87C554.892,236.87,560.256,241.34,560.256,246.85C560.244,252.36,554.892,256.83,548.28,256.83Z" transform="translate(-292.559984,-246.849991)" fill="url(#eJo8egPhViq7-fill)" stroke="none" stroke-width="1"/></g><path id="eJo8egPhViq8" d="M1028.06,116.962C1029.25,111.54,1024.94,106.34,1018.44,105.348C1011.93,104.357,1005.69,107.948,1004.5,113.37C1003.31,118.792,1007.63,123.992,1014.13,124.984C1020.64,125.975,1026.88,122.384,1028.06,116.962Z" fill="rgb(0,240,233)" stroke="none" stroke-width="1"/><path id="eJo8egPhViq9" d="M899.972,619.21C901.027,613.769,896.59,608.644,890.06,607.763C883.531,606.882,877.382,610.579,876.327,616.021C875.271,621.462,879.708,626.587,886.238,627.468C892.767,628.349,898.916,624.652,899.972,619.21Z" fill="rgb(255,11,83)" stroke="none" stroke-width="1"/><path id="eJo8egPhViq10" d="M1215,710.75C1221.61,710.75,1226.98,706.282,1226.98,700.77C1226.98,695.258,1221.61,690.79,1215,690.79C1208.39,690.79,1203.02,695.258,1203.02,700.77C1203.02,706.282,1208.39,710.75,1215,710.75Z" fill="rgb(0,152,255)" stroke="none" stroke-width="1"/></svg>