<svg id="eZOnLUNlhBv1" xmlns="http://www.w3.org/2000/svg" xmlns:xlink="http://www.w3.org/1999/xlink" viewBox="0 0 1920 802" shape-rendering="geometricPrecision" text-rendering="geometricPrecision"><style><![CDATA[#eZOnLUNlhBv3 {animation: eZOnLUNlhBv3_c_o 8571.428571428572ms linear infinite normal forwards}@keyframes eZOnLUNlhBv3_c_o { 0% {opacity: 0.33} 6.666667% {opacity: 0.47} 30% {opacity: 0} 43.333333% {opacity: 0.46} 63.333333% {opacity: 0.58} 100% {opacity: 0.58}} #eZOnLUNlhBv4 {animation: eZOnLUNlhBv4_c_o 8571.428571428572ms linear infinite normal forwards}@keyframes eZOnLUNlhBv4_c_o { 0% {opacity: 0.33;animation-timing-function: cubic-bezier(0.42,0,0.58,1)} 30% {opacity: 0;animation-timing-function: cubic-bezier(0.42,0,0.58,1)} 56.666667% {opacity: 0.46;animation-timing-function: cubic-bezier(0.42,0,0.58,1)} 76.666667% {opacity: 0.58} 86.666667% {opacity: 0} 100% {opacity: 0}} #eZOnLUNlhBv5 {animation: eZOnLUNlhBv5_c_o 8571.428571428572ms linear infinite normal forwards}@keyframes eZOnLUNlhBv5_c_o { 0% {opacity: 0.29;animation-timing-function: cubic-bezier(0.42,0,0.58,1)} 33.333333% {opacity: 0;animation-timing-function: cubic-bezier(0.42,0,0.58,1)} 66.666667% {opacity: 0.5} 90% {opacity: 0.02} 100% {opacity: 0.02}} #eZOnLUNlhBv7 {animation: eZOnLUNlhBv7_c_o 8571.428571428572ms linear infinite normal forwards}@keyframes eZOnLUNlhBv7_c_o { 0% {opacity: 0.33} 30% {opacity: 0} 56.666667% {opacity: 0.46} 86.666667% {opacity: 0.58} 100% {opacity: 0.58}} #eZOnLUNlhBv9 {animation: eZOnLUNlhBv9_c_o 8571.428571428572ms linear infinite normal forwards}@keyframes eZOnLUNlhBv9_c_o { 0% {opacity: 0} 3.333333% {opacity: 0} 16.666667% {opacity: 0.33;animation-timing-function: cubic-bezier(0.42,0,0.58,1)} 46.666667% {opacity: 0;animation-timing-function: cubic-bezier(0.42,0,0.58,1)} 66.666667% {opacity: 0.46;animation-timing-function: cubic-bezier(0.42,0,0.58,1)} 83.333333% {opacity: 0.58} 96.666667% {opacity: 0.22} 100% {opacity: 0.22}} #eZOnLUNlhBv10 {animation: eZOnLUNlhBv10_c_o 8571.428571428572ms linear infinite normal forwards}@keyframes eZOnLUNlhBv10_c_o { 0% {opacity: 0.33} 23.333333% {opacity: 0.33;animation-timing-function: cubic-bezier(0.42,0,0.58,1)} 43.333333% {opacity: 0;animation-timing-function: cubic-bezier(0.42,0,0.58,1)} 66.666667% {opacity: 0.46;animation-timing-function: cubic-bezier(0.42,0,0.58,1)} 80% {opacity: 0.58} 93.333333% {opacity: 0.09} 100% {opacity: 0.09}} #eZOnLUNlhBv11 {animation: eZOnLUNlhBv11_c_o 8571.428571428572ms linear infinite normal forwards}@keyframes eZOnLUNlhBv11_c_o { 0% {opacity: 0.29} 19.333333% {opacity: 0.29;animation-timing-function: cubic-bezier(0.42,0,0.58,1)} 46% {opacity: 0;animation-timing-function: cubic-bezier(0.42,0,0.58,1)} 86% {opacity: 0.5} 96.666667% {opacity: 0} 100% {opacity: 0}} #eZOnLUNlhBv14 {animation: eZOnLUNlhBv14_c_o 8571.428571428572ms linear infinite normal forwards}@keyframes eZOnLUNlhBv14_c_o { 0% {opacity: 0.29;animation-timing-function: cubic-bezier(0.42,0,0.58,1)} 26.666667% {opacity: 0;animation-timing-function: cubic-bezier(0.42,0,0.58,1)} 53.333333% {opacity: 0.5} 73.333333% {opacity: 0} 100% {opacity: 0}} #eZOnLUNlhBv15 {animation: eZOnLUNlhBv15_c_o 8571.428571428572ms linear infinite normal forwards}@keyframes eZOnLUNlhBv15_c_o { 0% {opacity: 0.33} 13.333333% {opacity: 0.33;animation-timing-function: cubic-bezier(0.42,0,0.58,1)} 43.333333% {opacity: 0;animation-timing-function: cubic-bezier(0.42,0,0.58,1)} 56.666667% {opacity: 0.46;animation-timing-function: cubic-bezier(0.42,0,0.58,1)} 73.333333% {opacity: 0.07} 100% {opacity: 0.07}} #eZOnLUNlhBv16 {animation: eZOnLUNlhBv16_c_o 8571.428571428572ms linear infinite normal forwards}@keyframes eZOnLUNlhBv16_c_o { 0% {opacity: 0.33} 16.666667% {opacity: 0.33;animation-timing-function: cubic-bezier(0.42,0,0.58,1)} 33.333333% {opacity: 0;animation-timing-function: cubic-bezier(0.42,0,0.58,1)} 60% {opacity: 0.46;animation-timing-function: cubic-bezier(0.42,0,0.58,1)} 86.666667% {opacity: 0.58} 100% {opacity: 0.58}} #eZOnLUNlhBv17 {animation: eZOnLUNlhBv17_c_o 8571.428571428572ms linear infinite normal forwards}@keyframes eZOnLUNlhBv17_c_o { 0% {opacity: 0.33;animation-timing-function: cubic-bezier(0.42,0,0.58,1)} 16.666667% {opacity: 0;animation-timing-function: cubic-bezier(0.42,0,0.58,1)} 43.333333% {opacity: 0.46;animation-timing-function: cubic-bezier(0.42,0,0.58,1)} 63.333333% {opacity: 0.58} 73.333333% {opacity: 0} 100% {opacity: 0}} #eZOnLUNlhBv20 {animation: eZOnLUNlhBv20_c_o 8571.428571428572ms linear infinite normal forwards}@keyframes eZOnLUNlhBv20_c_o { 0% {opacity: 0.1} 20% {opacity: 0.1} 50% {opacity: 0;animation-timing-function: cubic-bezier(0.42,0,0.58,1)} 80% {opacity: 0.46;animation-timing-function: cubic-bezier(0.42,0,0.58,1)} 96.666667% {opacity: 0.58} 100% {opacity: 0.58}} #eZOnLUNlhBv21 {animation: eZOnLUNlhBv21_c_o 8571.428571428572ms linear infinite normal forwards}@keyframes eZOnLUNlhBv21_c_o { 0% {opacity: 0.1} 16.666667% {opacity: 0.1} 46.666667% {opacity: 0;animation-timing-function: cubic-bezier(0.42,0,0.58,1)} 63.333333% {opacity: 0.46;animation-timing-function: cubic-bezier(0.42,0,0.58,1)} 86.666667% {opacity: 0.58} 100% {opacity: 0.04}} #eZOnLUNlhBv22 {animation: eZOnLUNlhBv22_c_o 8571.428571428572ms linear infinite normal forwards}@keyframes eZOnLUNlhBv22_c_o { 0% {opacity: 0.29} 6.666667% {opacity: 0.29;animation-timing-function: cubic-bezier(0.42,0,0.58,1)} 23.333333% {opacity: 0.29;animation-timing-function: cubic-bezier(0.42,0,0.58,1)} 40% {opacity: 0;animation-timing-function: cubic-bezier(0.42,0,0.58,1)} 63.333333% {opacity: 0.5} 93.333333% {opacity: 0.01} 100% {opacity: 0.01}} #eZOnLUNlhBv23 {animation: eZOnLUNlhBv23_c_o 8571.428571428572ms linear infinite normal forwards}@keyframes eZOnLUNlhBv23_c_o { 0% {opacity: 0.29} 30% {opacity: 0.29;animation-timing-function: cubic-bezier(0.42,0,0.58,1)} 63.333333% {opacity: 0;animation-timing-function: cubic-bezier(0.42,0,0.58,1)} 83.333333% {opacity: 0.5} 96.666667% {opacity: 0} 100% {opacity: 0}} #eZOnLUNlhBv25 {animation: eZOnLUNlhBv25_c_o 8571.428571428572ms linear infinite normal forwards}@keyframes eZOnLUNlhBv25_c_o { 0% {opacity: 0.33;animation-timing-function: cubic-bezier(0.42,0,0.58,1)} 30% {opacity: 0;animation-timing-function: cubic-bezier(0.42,0,0.58,1)} 56.666667% {opacity: 0.46;animation-timing-function: cubic-bezier(0.42,0,0.58,1)} 86.666667% {opacity: 0.02} 100% {opacity: 0.02}} #eZOnLUNlhBv26 {animation: eZOnLUNlhBv26_c_o 8571.428571428572ms linear infinite normal forwards}@keyframes eZOnLUNlhBv26_c_o { 0% {opacity: 0.29} 16.666667% {opacity: 0.29;animation-timing-function: cubic-bezier(0.42,0,0.58,1)} 46.666667% {opacity: 0;animation-timing-function: cubic-bezier(0.42,0,0.58,1)} 76.666667% {opacity: 0.73} 83.333333% {opacity: 0} 100% {opacity: 0}} #eZOnLUNlhBv28 {animation: eZOnLUNlhBv28_c_o 8571.428571428572ms linear infinite normal forwards}@keyframes eZOnLUNlhBv28_c_o { 0% {opacity: 0.33;animation-timing-function: cubic-bezier(0.42,0,0.58,1)} 13.333333% {opacity: 0.15;animation-timing-function: cubic-bezier(0.42,0,0.58,1)} 30% {opacity: 0;animation-timing-function: cubic-bezier(0.42,0,0.58,1)} 40% {opacity: 0.46;animation-timing-function: cubic-bezier(0.42,0,0.58,1)} 70% {opacity: 0.58} 86.666667% {opacity: 0.08} 100% {opacity: 0.08}} #eZOnLUNlhBv30 {animation: eZOnLUNlhBv30_c_o 8571.428571428572ms linear infinite normal forwards}@keyframes eZOnLUNlhBv30_c_o { 0% {opacity: 0.29} 6.666667% {opacity: 0.29;animation-timing-function: cubic-bezier(0.42,0,0.58,1)} 53.333333% {opacity: 0;animation-timing-function: cubic-bezier(0.42,0,0.58,1)} 83.333333% {opacity: 0.5} 96.666667% {opacity: 0.13} 100% {opacity: 0.13}} #eZOnLUNlhBv33 {animation: eZOnLUNlhBv33_c_o 8571.428571428572ms linear infinite normal forwards}@keyframes eZOnLUNlhBv33_c_o { 0% {opacity: 0.33} 13.333333% {opacity: 0.33;animation-timing-function: cubic-bezier(0.42,0,0.58,1)} 30% {opacity: 0;animation-timing-function: cubic-bezier(0.42,0,0.58,1)} 50% {opacity: 0.46;animation-timing-function: cubic-bezier(0.42,0,0.58,1)} 60% {opacity: 0.58} 83.333333% {opacity: 0.11} 100% {opacity: 0.11}} #eZOnLUNlhBv37 {animation: eZOnLUNlhBv37_c_o 8571.428571428572ms linear infinite normal forwards}@keyframes eZOnLUNlhBv37_c_o { 0% {opacity: 0.33} 10% {opacity: 0.33;animation-timing-function: cubic-bezier(0.42,0,0.58,1)} 50% {opacity: 0;animation-timing-function: cubic-bezier(0.42,0,0.58,1)} 66.666667% {opacity: 0.46;animation-timing-function: cubic-bezier(0.42,0,0.58,1)} 100% {opacity: 0.58}} #eZOnLUNlhBv38 {animation: eZOnLUNlhBv38_c_o 8571.428571428572ms linear infinite normal forwards}@keyframes eZOnLUNlhBv38_c_o { 0% {opacity: 0.33;animation-timing-function: cubic-bezier(0.42,0,0.58,1)} 30% {opacity: 0;animation-timing-function: cubic-bezier(0.42,0,0.58,1)} 36.666667% {opacity: 0.33;animation-timing-function: cubic-bezier(0.42,0,0.58,1)} 50% {opacity: 0.46;animation-timing-function: cubic-bezier(0.42,0,0.58,1)} 100% {opacity: 0.58}} #eZOnLUNlhBv40 {animation: eZOnLUNlhBv40_c_o 8571.428571428572ms linear infinite normal forwards}@keyframes eZOnLUNlhBv40_c_o { 0% {opacity: 0.33;animation-timing-function: cubic-bezier(0.42,0,0.58,1)} 13.333333% {opacity: 0.37;animation-timing-function: cubic-bezier(0.42,0,0.58,1)} 30% {opacity: 0.46;animation-timing-function: cubic-bezier(0.42,0,0.58,1)} 60% {opacity: 0.58} 90% {opacity: 0} 100% {opacity: 0}} #eZOnLUNlhBv41 {animation: eZOnLUNlhBv41_c_o 8571.428571428572ms linear infinite normal forwards}@keyframes eZOnLUNlhBv41_c_o { 0% {opacity: 0.29} 10% {opacity: 0.29;animation-timing-function: cubic-bezier(0.42,0,0.58,1)} 13.333333% {opacity: 0.33;animation-timing-function: cubic-bezier(0.42,0,0.58,1)} 43.333333% {opacity: 0;animation-timing-function: cubic-bezier(0.42,0,0.58,1)} 60% {opacity: 0.46;animation-timing-function: cubic-bezier(0.42,0,0.58,1)} 80% {opacity: 0.58} 90% {opacity: 0.2} 100% {opacity: 0.2}} #eZOnLUNlhBv42 {animation: eZOnLUNlhBv42_c_o 8571.428571428572ms linear infinite normal forwards}@keyframes eZOnLUNlhBv42_c_o { 0% {opacity: 0.33} 10% {opacity: 0.33;animation-timing-function: cubic-bezier(0.42,0,0.58,1)} 20% {opacity: 0.29;animation-timing-function: cubic-bezier(0.42,0,0.58,1)} 40% {opacity: 0;animation-timing-function: cubic-bezier(0.42,0,0.58,1)} 66.666667% {opacity: 0.46;animation-timing-function: cubic-bezier(0.42,0,0.58,1)} 96.666667% {opacity: 0.58} 100% {opacity: 0.58}} #eZOnLUNlhBv44 {animation: eZOnLUNlhBv44_c_o 8571.428571428572ms linear infinite normal forwards}@keyframes eZOnLUNlhBv44_c_o { 0% {opacity: 0.29} 6.666667% {opacity: 0.29;animation-timing-function: cubic-bezier(0.42,0,0.58,1)} 10% {opacity: 0.33;animation-timing-function: cubic-bezier(0.42,0,0.58,1)} 46.666667% {opacity: 0;animation-timing-function: cubic-bezier(0.42,0,0.58,1)} 56.666667% {opacity: 0.46;animation-timing-function: cubic-bezier(0.42,0,0.58,1)} 80% {opacity: 0.58} 100% {opacity: 0.58}} #eZOnLUNlhBv45 {animation: eZOnLUNlhBv45_c_o 8571.428571428572ms linear infinite normal forwards}@keyframes eZOnLUNlhBv45_c_o { 0% {opacity: 0.33} 10% {opacity: 0.33} 30% {opacity: 0} 56.666667% {opacity: 0.46} 66.666667% {opacity: 0.58} 100% {opacity: 0.58}} #eZOnLUNlhBv47 {animation: eZOnLUNlhBv47_c_o 8571.428571428572ms linear infinite normal forwards}@keyframes eZOnLUNlhBv47_c_o { 0% {opacity: 0.33} 10% {opacity: 0.33;animation-timing-function: cubic-bezier(0.42,0,0.58,1)} 40% {opacity: 0} 66.666667% {opacity: 0.46} 93.333333% {opacity: 0} 100% {opacity: 0}} #eZOnLUNlhBv50 {animation: eZOnLUNlhBv50_c_o 8571.428571428572ms linear infinite normal forwards}@keyframes eZOnLUNlhBv50_c_o { 0% {opacity: 0.33} 10% {opacity: 0.33;animation-timing-function: cubic-bezier(0.42,0,0.58,1)} 40% {opacity: 0;animation-timing-function: cubic-bezier(0.42,0,0.58,1)} 46.666667% {opacity: 0.46;animation-timing-function: cubic-bezier(0.42,0,0.58,1)} 76.666667% {opacity: 0.58} 100% {opacity: 0.58}} #eZOnLUNlhBv51 {animation: eZOnLUNlhBv51_c_o 8571.428571428572ms linear infinite normal forwards}@keyframes eZOnLUNlhBv51_c_o { 0% {opacity: 0} 30% {opacity: 0.57} 56.666667% {opacity: 0.06} 86.666667% {opacity: 0.58} 100% {opacity: 0.58}} #eZOnLUNlhBv55_to {animation: eZOnLUNlhBv55_to__to 8571.428571428572ms linear infinite normal forwards}@keyframes eZOnLUNlhBv55_to__to { 0% {transform: translate(-94.947143px,-17.740043px)} 43.333333% {transform: translate(414.876067px,540.654857px)} 100% {transform: translate(414.876067px,540.654857px)}} #eZOnLUNlhBv57_to {animation: eZOnLUNlhBv57_to__to 8571.428571428572ms linear infinite normal forwards}@keyframes eZOnLUNlhBv57_to__to { 0% {transform: translate(1088.948303px,-95.810929px)} 83.333333% {transform: translate(2065.657303px,756.269519px)} 100% {transform: translate(2065.657303px,756.269519px)}}]]></style><defs><radialGradient id="eZOnLUNlhBv2-fill" cx="0" cy="0" r="1" spreadMethod="pad" gradientUnits="userSpaceOnUse" gradientTransform="matrix(2095.95 0 0 1344.53 572.331 -101.374)"><stop id="eZOnLUNlhBv2-fill-0" offset="0.537634%" stop-color="rgb(82,52,130)"/><stop id="eZOnLUNlhBv2-fill-1" offset="100%" stop-color="rgb(19,22,69)"/></radialGradient><linearGradient id="eZOnLUNlhBv54-fill" x1="332.85" y1="330.578" x2="220.009" y2="230.34" spreadMethod="pad" gradientUnits="userSpaceOnUse"><stop id="eZOnLUNlhBv54-fill-0" offset="0.537634%" stop-color="rgb(232,164,172)"/><stop id="eZOnLUNlhBv54-fill-1" offset="99.46%" stop-color="rgba(202,73,167,0)"/></linearGradient><linearGradient id="eZOnLUNlhBv55-fill" x1="331.397" y1="329.287" x2="262.248" y2="267.861" spreadMethod="pad" gradientUnits="userSpaceOnUse"><stop id="eZOnLUNlhBv55-fill-0" offset="0.537634%" stop-color="rgb(232,164,172)"/><stop id="eZOnLUNlhBv55-fill-1" offset="99.46%" stop-color="rgba(202,73,167,0)"/></linearGradient><linearGradient id="eZOnLUNlhBv56-fill" x1="1422.52" y1="252.492" x2="1247.56" y2="97.0783" spreadMethod="pad" gradientUnits="userSpaceOnUse"><stop id="eZOnLUNlhBv56-fill-0" offset="0.537634%" stop-color="rgb(232,164,172)"/><stop id="eZOnLUNlhBv56-fill-1" offset="99.46%" stop-color="rgba(202,73,167,0)"/></linearGradient><linearGradient id="eZOnLUNlhBv57-fill" x1="1420.27" y1="250.49" x2="1313.05" y2="155.252" spreadMethod="pad" gradientUnits="userSpaceOnUse"><stop id="eZOnLUNlhBv57-fill-0" offset="0.537634%" stop-color="rgb(232,164,172)"/><stop id="eZOnLUNlhBv57-fill-1" offset="99.46%" stop-color="rgba(202,73,167,0)"/></linearGradient><linearGradient id="eZOnLUNlhBv59-fill" x1="298.595" y1="230.384" x2="101.756" y2="55.5301" spreadMethod="pad" gradientUnits="userSpaceOnUse"><stop id="eZOnLUNlhBv59-fill-0" offset="0.537634%" stop-color="rgb(232,164,172)"/><stop id="eZOnLUNlhBv59-fill-1" offset="99.46%" stop-color="rgba(202,73,167,0)"/></linearGradient><linearGradient id="eZOnLUNlhBv60-fill" x1="296.061" y1="228.13" x2="175.438" y2="120.979" spreadMethod="pad" gradientUnits="userSpaceOnUse"><stop id="eZOnLUNlhBv60-fill-0" offset="0.537634%" stop-color="rgb(232,164,172)"/><stop id="eZOnLUNlhBv60-fill-1" offset="99.46%" stop-color="rgba(202,73,167,0)"/></linearGradient><linearGradient id="eZOnLUNlhBv63-fill" x1="1677.31" y1="471.35" x2="1530.28" y2="340.745" spreadMethod="pad" gradientUnits="userSpaceOnUse"><stop id="eZOnLUNlhBv63-fill-0" offset="0.537634%" stop-color="rgb(232,164,172)"/><stop id="eZOnLUNlhBv63-fill-1" offset="99.46%" stop-color="rgba(202,73,167,0)"/></linearGradient><linearGradient id="eZOnLUNlhBv65-fill" x1="1554.06" y1="414.355" x2="1486.61" y2="354.431" spreadMethod="pad" gradientUnits="userSpaceOnUse"><stop id="eZOnLUNlhBv65-fill-0" offset="0.537634%" stop-color="rgb(232,164,172)"/><stop id="eZOnLUNlhBv65-fill-1" offset="99.46%" stop-color="rgba(202,73,167,0)"/></linearGradient></defs><path id="eZOnLUNlhBv2" d="M1920,4L0,4L0,795L1920,795L1920,4Z" transform="matrix(1 0 0 1 0 1.593085)" fill="url(#eZOnLUNlhBv2-fill)" stroke="none" stroke-width="1"/><path id="eZOnLUNlhBv3" d="M1348.56,387.717L1350.28,390.861L1353.43,392.573L1350.28,394.294L1348.56,397.43L1346.85,394.294L1343.7,392.573L1346.85,390.861L1348.56,387.717Z" opacity="0.33" fill="rgb(232,164,172)" stroke="none" stroke-width="1"/><path id="eZOnLUNlhBv4" d="M1331.89,140.182L1333.61,143.318L1336.74,145.039L1333.61,146.751L1331.89,149.895L1330.17,146.751L1327.03,145.039L1330.17,143.318L1331.89,140.182Z" opacity="0.33" fill="rgb(232,164,172)" stroke="none" stroke-width="1"/><path id="eZOnLUNlhBv5" d="M1669.86,85.7444L1673.26,91.9578L1679.47,95.3582L1673.26,98.7586L1669.86,104.972L1666.46,98.7586L1660.25,95.3582L1666.46,91.9578L1669.86,85.7444Z" opacity="0.29" fill="rgb(255,255,255)" stroke="none" stroke-width="1"/><path id="eZOnLUNlhBv6" d="M1707.57,666.277L1710.97,672.491L1717.18,675.883L1710.97,679.283L1707.57,685.497L1704.16,679.283L1697.95,675.883L1704.16,672.491L1707.57,666.277Z" opacity="0.29" fill="rgb(255,255,255)" stroke="none" stroke-width="1"/><path id="eZOnLUNlhBv7" d="M1475.54,145.336L1477.15,148.282L1480.1,149.895L1477.15,151.5L1475.54,154.446L1473.93,151.5L1470.99,149.895L1473.93,148.282L1475.54,145.336Z" opacity="0.33" fill="rgb(232,164,172)" stroke="none" stroke-width="1"/><path id="eZOnLUNlhBv8" d="M1660.21,426.644L1661.82,429.581L1664.76,431.194L1661.82,432.807L1660.21,435.744L1658.6,432.807L1655.65,431.194L1658.6,429.581L1660.21,426.644Z" opacity="0.29" fill="rgb(255,255,255)" stroke="none" stroke-width="1"/><path id="eZOnLUNlhBv9" d="M1547.52,31.1541L1549.13,34.0994L1552.08,35.7127L1549.13,37.3261L1547.52,40.2632L1545.91,37.3261L1542.96,35.7127L1545.91,34.0994L1547.52,31.1541Z" transform="matrix(1 0 0 1 0 2)" opacity="0" fill="rgb(255,255,255)" stroke="none" stroke-width="1"/><path id="eZOnLUNlhBv10" d="M1491.64,541.455L1493.05,544.045L1495.65,545.468L1493.05,546.883L1491.64,549.48L1490.22,546.883L1487.62,545.468L1490.22,544.045L1491.64,541.455Z" opacity="0.33" fill="rgb(255,255,255)" stroke="none" stroke-width="1"/><path id="eZOnLUNlhBv11" d="M1565.38,256.921L1566.79,259.519L1569.39,260.934L1566.79,262.357L1565.38,264.946L1563.95,262.357L1561.36,260.934L1563.95,259.519L1565.38,256.921Z" opacity="0.29" fill="rgb(255,255,255)" stroke="none" stroke-width="1"/><path id="eZOnLUNlhBv12" d="M1331.89,552.269L1333.72,555.603L1337.05,557.431L1333.72,559.26L1331.89,562.594L1330.07,559.26L1326.72,557.431L1330.07,555.603L1331.89,552.269Z" opacity="0.33" fill="rgb(232,164,172)" stroke="none" stroke-width="1"/><path id="eZOnLUNlhBv13" d="M1417.23,654.364L1419.06,657.698L1422.39,659.526L1419.06,661.355L1417.23,664.689L1415.41,661.355L1412.06,659.526L1415.41,657.698L1417.23,654.364Z" opacity="0.33" fill="rgb(232,164,172)" stroke="none" stroke-width="1"/><path id="eZOnLUNlhBv14" d="M1406.9,279.731L1408.73,283.065L1412.06,284.894L1408.73,286.722L1406.9,290.057L1405.08,286.722L1401.74,284.894L1405.08,283.065L1406.9,279.731Z" opacity="0.29" fill="rgb(232,164,172)" stroke="none" stroke-width="1"/><path id="eZOnLUNlhBv15" d="M1863.08,402.311L1864.91,405.645L1868.24,407.466L1864.91,409.294L1863.08,412.628L1861.25,409.294L1857.92,407.466L1861.25,405.645L1863.08,402.311Z" opacity="0.33" fill="rgb(232,164,172)" stroke="none" stroke-width="1"/><path id="eZOnLUNlhBv16" d="M4.858,419.379L6.5794,422.523L9.716,424.236L6.5794,425.957L4.858,429.093L3.14487,425.957L0,424.236L3.14487,422.523L4.858,419.379Z" opacity="0.33" fill="rgb(232,164,172)" stroke="none" stroke-width="1"/><path id="eZOnLUNlhBv17" d="M9.71615,138.081L11.4376,141.216L14.5742,142.937L11.4376,144.658L9.71615,147.794L8.00303,144.658L4.85815,142.937L8.00303,141.216L9.71615,138.081Z" opacity="0.33" fill="rgb(232,164,172)" stroke="none" stroke-width="1"/><path id="eZOnLUNlhBv18" d="M446.969,566.044L448.003,567.939L449.899,568.981L448.003,570.015L446.969,571.91L445.926,570.015L444.031,568.981L445.926,567.939L446.969,566.044Z" opacity="0.44" fill="rgb(232,164,172)" stroke="none" stroke-width="1"/><path id="eZOnLUNlhBv19" d="M1094.37,0.42627L1096.19,3.76876L1099.53,5.58893L1096.19,7.41737L1094.37,10.7599L1092.54,7.41737L1089.19,5.58893L1092.54,3.76876L1094.37,0.42627Z" opacity="0.89" fill="rgb(232,164,172)" stroke="none" stroke-width="1"/><path id="eZOnLUNlhBv20" d="M672.44,26.2561L673.425,28.068L675.237,29.0608L673.425,30.0536L672.44,31.8573L671.447,30.0536L669.634,29.0608L671.447,28.068L672.44,26.2561Z" opacity="0.1" fill="rgb(232,164,172)" stroke="none" stroke-width="1"/><path id="eZOnLUNlhBv21" d="M1886.19,242.07L1887.19,243.882L1889,244.875L1887.19,245.86L1886.19,247.671L1885.2,245.86L1883.4,244.875L1885.2,243.882L1886.19,242.07Z" opacity="0.1" fill="rgb(232,164,172)" stroke="none" stroke-width="1"/><path id="eZOnLUNlhBv22" d="M385.396,146.768L388.797,152.981L395.012,156.382L388.797,159.782L385.396,165.996L381.994,159.782L375.779,156.382L381.994,152.981L385.396,146.768Z" opacity="0.29" fill="rgb(255,255,255)" stroke="none" stroke-width="1"/><path id="eZOnLUNlhBv23" d="M153.37,143.243L154.984,146.189L157.93,147.794L154.984,149.407L153.37,152.353L151.765,149.407L148.819,147.794L151.765,146.189L153.37,143.243Z" opacity="0.29" fill="rgb(232,164,172)" stroke="none" stroke-width="1"/><path id="eZOnLUNlhBv24" d="M385.396,664.176L388.797,670.389L395.012,673.79L388.797,677.182L385.396,683.395L381.994,677.182L375.779,673.79L381.994,670.389L385.396,664.176Z" opacity="0.29" fill="rgb(255,255,255)" stroke="none" stroke-width="1"/><path id="eZOnLUNlhBv25" d="M338.04,424.542L339.646,427.488L342.592,429.093L339.646,430.706L338.04,433.651L336.427,430.706L333.48,429.093L336.427,427.488L338.04,424.542Z" opacity="0.33" fill="rgb(255,255,255)" stroke="none" stroke-width="1"/><path id="eZOnLUNlhBv26" d="M225.347,29.061L226.96,32.0064L229.907,33.6115L226.96,35.2248L225.347,38.1702L223.741,35.2248L220.795,33.6115L223.741,32.0064L225.347,29.061Z" opacity="0.29" fill="rgb(255,255,255)" stroke="none" stroke-width="1"/><path id="eZOnLUNlhBv27" d="M169.467,539.354L170.891,541.951L173.481,543.366L170.891,544.789L169.467,547.379L168.052,544.789L165.453,543.366L168.052,541.951L169.467,539.354Z" opacity="0.47" fill="rgb(255,255,255)" stroke="none" stroke-width="1"/><path id="eZOnLUNlhBv28" d="M243.206,254.828L244.621,257.418L247.22,258.841L244.621,260.256L243.206,262.845L241.783,260.256L239.192,258.841L241.783,257.418L243.206,254.828Z" opacity="0.33" fill="rgb(255,255,255)" stroke="none" stroke-width="1"/><path id="eZOnLUNlhBv29" d="M1250.71,745.43L1252.13,748.028L1254.72,749.442L1252.13,750.857L1250.71,753.455L1249.29,750.857L1246.69,749.442L1249.29,748.028L1250.71,745.43Z" opacity="0.47" fill="rgb(255,255,255)" stroke="none" stroke-width="1"/><path id="eZOnLUNlhBv30" d="M1814.14,31.7002L1815.57,34.2981L1818.16,35.7128L1815.57,37.1276L1814.14,39.7255L1812.73,37.1276L1810.14,35.7128L1812.73,34.2981L1814.14,31.7002Z" opacity="0.29" fill="rgb(255,255,255)" stroke="none" stroke-width="1"/><path id="eZOnLUNlhBv31" d="M47.8932,13.5151L49.3084,16.1047L51.8988,17.5278L49.3084,18.9425L47.8932,21.5322L46.4698,18.9425L43.8794,17.5278L46.4698,16.1047L47.8932,13.5151Z" opacity="0.66" fill="rgb(255,255,255)" stroke="none" stroke-width="1"/><path id="eZOnLUNlhBv32" d="M592.452,697.055L593.868,699.644L596.466,701.067L593.868,702.482L592.452,705.072L591.037,702.482L588.438,701.067L591.037,699.644L592.452,697.055Z" opacity="0.66" fill="rgb(255,255,255)" stroke="none" stroke-width="1"/><path id="eZOnLUNlhBv33" d="M480.048,68.6826L481.463,71.2805L484.062,72.6953L481.463,74.11L480.048,76.7079L478.625,74.11L476.034,72.6953L478.625,71.2805L480.048,68.6826Z" opacity="0.33" fill="rgb(255,255,255)" stroke="none" stroke-width="1"/><path id="eZOnLUNlhBv34" d="M9.71597,550.167L11.545,553.509L14.8802,555.33L11.545,557.158L9.71597,560.492L7.89525,557.158L4.55176,555.33L7.89525,553.509L9.71597,550.167Z" opacity="0.33" fill="rgb(232,164,172)" stroke="none" stroke-width="1"/><path id="eZOnLUNlhBv35" d="M95.058,652.27L96.887,655.604L100.222,657.424L96.887,659.253L95.058,662.587L93.2373,659.253L89.8938,657.424L93.2373,655.604L95.058,652.27Z" opacity="0.33" fill="rgb(232,164,172)" stroke="none" stroke-width="1"/><path id="eZOnLUNlhBv36" d="M699.817,791.248L701.637,794.583L704.973,796.411L701.637,798.231L699.817,801.574L697.988,798.231L694.652,796.411L697.988,794.583L699.817,791.248Z" opacity="0.33" fill="rgb(232,164,172)" stroke="none" stroke-width="1"/><path id="eZOnLUNlhBv37" d="M84.7377,277.63L86.5584,280.972L89.8936,282.792L86.5584,284.621L84.7377,287.955L82.9087,284.621L79.5735,282.792L82.9087,280.972L84.7377,277.63Z" opacity="0.33" fill="rgb(232,164,172)" stroke="none" stroke-width="1"/><path id="eZOnLUNlhBv38" d="M540.91,400.21L542.739,403.544L546.074,405.373L542.739,407.193L540.91,410.535L539.081,407.193L535.745,405.373L539.081,403.544L540.91,400.21Z" opacity="0.33" fill="rgb(232,164,172)" stroke="none" stroke-width="1"/><path id="eZOnLUNlhBv39" d="M625.101,463.014L626.823,466.158L629.959,467.871L626.823,469.592L625.101,472.735L623.38,469.592L620.243,467.871L623.38,466.158L625.101,463.014Z" opacity="0.47" fill="rgb(232,164,172)" stroke="none" stroke-width="1"/><path id="eZOnLUNlhBv40" d="M601.324,286.532L603.046,289.676L606.182,291.389L603.046,293.109L601.324,296.245L599.603,293.109L596.466,291.389L599.603,289.676L601.324,286.532Z" opacity="0.33" fill="rgb(232,164,172)" stroke="none" stroke-width="1"/><path id="eZOnLUNlhBv41" d="M1143.25,143.409L1145.54,147.603L1149.74,149.895L1145.54,152.187L1143.25,156.382L1140.96,152.187L1136.76,149.895L1140.96,147.603L1143.25,143.409Z" opacity="0.29" fill="rgb(255,255,255)" stroke="none" stroke-width="1"/><path id="eZOnLUNlhBv42" d="M773.614,186.878L775.227,189.823L778.165,191.428L775.227,193.042L773.614,195.987L772,193.042L769.062,191.428L772,189.823L773.614,186.878Z" opacity="0.33" fill="rgb(232,164,172)" stroke="none" stroke-width="1"/><path id="eZOnLUNlhBv43" d="M1005.64,707.81L1009.04,714.023L1015.26,717.424L1009.04,720.824L1005.64,727.038L1002.24,720.824L996.022,717.424L1002.24,714.023L1005.64,707.81Z" opacity="0.29" fill="rgb(255,255,255)" stroke="none" stroke-width="1"/><path id="eZOnLUNlhBv44" d="M958.284,468.177L959.889,471.122L962.835,472.735L959.889,474.341L958.284,477.286L956.67,474.341L953.724,472.735L956.67,471.122L958.284,468.177Z" opacity="0.29" fill="rgb(255,255,255)" stroke="none" stroke-width="1"/><path id="eZOnLUNlhBv45" d="M845.59,72.6953L847.204,75.6407L850.15,77.254L847.204,78.8591L845.59,81.8044L843.984,78.8591L841.038,77.254L843.984,75.6407L845.59,72.6953Z" opacity="0.33" fill="rgb(255,255,255)" stroke="none" stroke-width="1"/><path id="eZOnLUNlhBv46" d="M773.614,589.797L775.029,592.387L777.627,593.81L775.029,595.224L773.614,597.814L772.198,595.224L769.6,593.81L772.198,592.387L773.614,589.797Z" opacity="0.32" fill="rgb(255,255,255)" stroke="none" stroke-width="1"/><path id="eZOnLUNlhBv47" d="M821.813,254.828L823.228,257.418L825.827,258.841L823.228,260.256L821.813,262.845L820.389,260.256L817.799,258.841L820.389,257.418L821.813,254.828Z" opacity="0.33" fill="rgb(255,255,255)" stroke="none" stroke-width="1"/><path id="eZOnLUNlhBv48" d="M629.959,593.81L631.788,597.144L635.123,598.972L631.788,600.792L629.959,604.127L628.138,600.792L624.795,598.972L628.138,597.144L629.959,593.81Z" opacity="0.33" fill="rgb(232,164,172)" stroke="none" stroke-width="1"/><path id="eZOnLUNlhBv49" d="M715.301,695.905L717.13,699.239L720.465,701.067L717.13,702.887L715.301,706.222L713.48,702.887L710.137,701.067L713.48,699.239L715.301,695.905Z" opacity="0.33" fill="rgb(232,164,172)" stroke="none" stroke-width="1"/><path id="eZOnLUNlhBv50" d="M704.973,321.272L706.802,324.607L710.137,326.435L706.802,328.255L704.973,331.59L703.152,328.255L699.817,326.435L703.152,324.607L704.973,321.272Z" opacity="0.33" fill="rgb(232,164,172)" stroke="none" stroke-width="1"/><path id="eZOnLUNlhBv51" d="M1182.74,301.325L1184.57,304.659L1187.9,306.488L1184.57,308.308L1182.74,311.642L1180.92,308.308L1177.57,306.488L1180.92,304.659L1182.74,301.325Z" opacity="0" fill="rgb(232,164,172)" stroke="none" stroke-width="1"/><g id="eZOnLUNlhBv52" clip-path="url(#eZOnLUNlhBv66)"><g id="eZOnLUNlhBv53"><path id="eZOnLUNlhBv54" d="M225.69,230.052L332.814,328.417C333.414,328.965,333.459,329.894,332.917,330.5C332.375,331.106,331.453,331.171,330.84,330.642L220.395,236.024C218.699,234.573,218.525,232.013,220.008,230.348C221.492,228.672,224.046,228.543,225.69,230.052Z" transform="matrix(1 0 0 1 1789.509468 476.26929)" fill="url(#eZOnLUNlhBv54-fill)" stroke="none" stroke-width="1"/><g id="eZOnLUNlhBv55_to" transform="translate(-94.947143,-17.740043)"><path id="eZOnLUNlhBv55" d="M265.73,267.686L331.376,327.965C331.743,328.3,331.769,328.868,331.44,329.242C331.111,329.616,330.544,329.655,330.163,329.326L262.48,271.343C261.441,270.453,261.332,268.886,262.241,267.86C263.157,266.841,264.724,266.757,265.73,267.686Z" transform="translate(-296.647141,-298.294479)" fill="url(#eZOnLUNlhBv55-fill)" stroke="none" stroke-width="1"/></g><path id="eZOnLUNlhBv56" d="M1256.37,96.6308L1422.46,249.141C1423.39,249.991,1423.46,251.431,1422.62,252.371C1421.78,253.311,1420.35,253.411,1419.4,252.591L1248.16,105.891C1245.53,103.641,1245.26,99.6708,1247.56,97.0908C1249.86,94.4908,1253.82,94.2908,1256.37,96.6308Z" transform="matrix(1 0 0 1 -304.700521 -1246.199239)" fill="url(#eZOnLUNlhBv56-fill)" stroke="none" stroke-width="1"/><g id="eZOnLUNlhBv57_to" transform="translate(1088.948303,-95.810929)"><path id="eZOnLUNlhBv57" d="M1318.45,154.981L1420.23,248.441C1420.8,248.961,1420.84,249.841,1420.33,250.421C1419.82,251.001,1418.94,251.061,1418.35,250.551L1313.41,160.651C1311.8,159.271,1311.63,156.841,1313.04,155.251C1314.46,153.671,1316.89,153.541,1318.45,154.981Z" transform="translate(-1366.385071,-202.438202)" fill="url(#eZOnLUNlhBv57-fill)" stroke="none" stroke-width="1"/></g><g id="eZOnLUNlhBv58" opacity="0.22"><path id="eZOnLUNlhBv59" d="M111.67,55.0301L298.54,226.61C299.58,227.57,299.67,229.19,298.72,230.24C297.78,231.3,296.17,231.41,295.09,230.49L102.43,65.4401C99.4701,62.9101,99.1701,58.4401,101.75,55.5301C104.34,52.6201,108.8,52.4001,111.67,55.0301Z" opacity="0.22" fill="url(#eZOnLUNlhBv59-fill)" stroke="none" stroke-width="1"/><path id="eZOnLUNlhBv60" d="M181.51,120.67L296.02,225.82C296.66,226.41,296.71,227.4,296.13,228.05C295.55,228.7,294.57,228.77,293.91,228.2L175.85,127.05C174.04,125.5,173.85,122.76,175.44,120.98C177.02,119.2,179.76,119.06,181.51,120.67Z" opacity="0.22" fill="url(#eZOnLUNlhBv60-fill)" stroke="none" stroke-width="1"/></g><g id="eZOnLUNlhBv61" opacity="0.35"><g id="eZOnLUNlhBv62" opacity="0.35"><path id="eZOnLUNlhBv63" d="M1537.68,340.369L1677.26,468.529C1678.04,469.249,1678.1,470.449,1677.4,471.239C1676.7,472.029,1675.49,472.109,1674.69,471.419L1530.78,348.149C1528.57,346.259,1528.35,342.919,1530.28,340.749C1532.21,338.569,1535.54,338.409,1537.68,340.369Z" opacity="0.35" fill="url(#eZOnLUNlhBv63-fill)" stroke="none" stroke-width="1"/></g><g id="eZOnLUNlhBv64" opacity="0.35"><path id="eZOnLUNlhBv65" d="M1490,354.259L1554.04,413.059C1554.4,413.389,1554.43,413.939,1554.1,414.309C1553.78,414.669,1553.22,414.709,1552.86,414.389L1486.83,357.819C1485.82,356.949,1485.71,355.419,1486.6,354.419C1487.49,353.429,1489.02,353.359,1490,354.259Z" opacity="0.35" fill="url(#eZOnLUNlhBv65-fill)" stroke="none" stroke-width="1"/></g></g></g><clipPath id="eZOnLUNlhBv66"><rect id="eZOnLUNlhBv67" width="1920" height="371" rx="0" ry="0" transform="matrix(1 0 0 1 0 4)" fill="rgb(255,255,255)" stroke="none" stroke-width="1"/></clipPath></g></svg>