<svg width="13" height="11" viewBox="0 0 13 11" fill="none" xmlns="http://www.w3.org/2000/svg">
<path d="M4.37888 10.3142C4.01152 10.3142 3.66236 10.1772 3.39428 9.93088L0.473584 7.29645C0.188961 7.04361 0.0218281 6.69616 0.00197062 6.31772C-0.0178868 5.93928 0.112841 5.57715 0.370987 5.29658L0.650647 4.99317C0.922031 4.69629 1.31256 4.52664 1.71798 4.52664C2.06218 4.52664 2.39479 4.64898 2.65625 4.8692L4.12901 6.11708L9.30352 0.46816C9.57656 0.171278 9.96544 0 10.3725 0C10.7151 0 11.0477 0.12071 11.3091 0.342556L11.6252 0.610076C11.9164 0.856391 12.0935 1.20058 12.1216 1.57739C12.1498 1.9542 12.029 2.32123 11.7774 2.60832L5.47104 9.82322C5.2162 10.1152 4.84718 10.293 4.45666 10.3142C4.43018 10.3126 4.4037 10.3142 4.37888 10.3142Z" fill="#FFE03D"/>
</svg>
