<svg width="18" height="18" viewBox="0 0 18 18" fill="none" xmlns="http://www.w3.org/2000/svg">
<g clip-path="url(#clip0_1_637)">
<g filter="url(#filter0_d_1_637)">
<path d="M9.10342 10.5733L3.04278 4.2691C2.8763 4.09552 2.65372 4.00002 2.41638 4.00002C2.17891 4.00002 1.95646 4.09552 1.78972 4.2691L1.25894 4.82151C1.09193 4.99482 1 5.22649 1 5.47338C1 5.72026 1.09193 5.95166 1.25894 6.12511L8.47465 13.6312C8.64192 13.8053 8.86543 13.9007 9.10303 13.9C9.34168 13.9007 9.56493 13.8055 9.73233 13.6312L16.9411 6.1321C17.1081 5.95865 17.2 5.72725 17.2 5.48023C17.2 5.23334 17.1081 5.00194 16.9411 4.82836L16.4103 4.27609C16.0648 3.91672 15.5024 3.91672 15.1571 4.27609L9.10342 10.5733Z" fill="url(#paint0_linear_1_637)"/>
</g>
</g>
<defs>
<filter id="filter0_d_1_637" x="1" y="4.00003" width="16.2" height="10.9" filterUnits="userSpaceOnUse" color-interpolation-filters="sRGB">
<feFlood flood-opacity="0" result="BackgroundImageFix"/>
<feColorMatrix in="SourceAlpha" type="matrix" values="0 0 0 0 0 0 0 0 0 0 0 0 0 0 0 0 0 0 127 0" result="hardAlpha"/>
<feOffset dy="1"/>
<feComposite in2="hardAlpha" operator="out"/>
<feColorMatrix type="matrix" values="0 0 0 0 0.395833 0 0 0 0 0.244097 0 0 0 0 0.279502 0 0 0 1 0"/>
<feBlend mode="normal" in2="BackgroundImageFix" result="effect1_dropShadow_1_637"/>
<feBlend mode="normal" in="SourceGraphic" in2="effect1_dropShadow_1_637" result="shape"/>
</filter>
<linearGradient id="paint0_linear_1_637" x1="1" y1="8.95002" x2="13.8572" y2="-0.586062" gradientUnits="userSpaceOnUse">
<stop offset="0.0933841" stop-color="#FFE142"/>
<stop offset="1" stop-color="#F06B23"/>
</linearGradient>
<clipPath id="clip0_1_637">
<rect width="18" height="18" fill="white" transform="translate(0 18) rotate(-90)"/>
</clipPath>
</defs>
</svg>
