<svg width="20" height="20" viewBox="0 0 20 20" fill="none" xmlns="http://www.w3.org/2000/svg">
<g id="Iconly/Bold/Info Circle" opacity="0.5">
<g id="Info Circle">
<path id="Info Circle_2" fill-rule="evenodd" clip-rule="evenodd" d="M1.66675 9.99941C1.66675 5.40024 5.40008 1.66608 10.0001 1.66608C14.6084 1.66608 18.3334 5.40024 18.3334 9.99941C18.3334 14.6002 14.6084 18.3327 10.0001 18.3327C5.40008 18.3327 1.66675 14.6002 1.66675 9.99941ZM9.26675 6.84108C9.26675 6.44191 9.60008 6.10774 10.0001 6.10774C10.4001 6.10774 10.7251 6.44191 10.7251 6.84108V10.5244C10.7251 10.9252 10.4001 11.2494 10.0001 11.2494C9.60008 11.2494 9.26675 10.9252 9.26675 10.5244V6.84108ZM10.0084 13.9002C9.60008 13.9002 9.27508 13.5669 9.27508 13.1669C9.27508 12.7669 9.60008 12.4419 10.0001 12.4419C10.4084 12.4419 10.7334 12.7669 10.7334 13.1669C10.7334 13.5669 10.4084 13.9002 10.0084 13.9002Z" fill="#9A8FC1"/>
</g>
</g>
</svg>
