<svg width="18" height="18" viewBox="0 0 18 18" fill="none" xmlns="http://www.w3.org/2000/svg">
<g clip-path="url(#clip0_18_137)">
<path d="M9.10342 10.5733L3.04278 4.2691C2.8763 4.09552 2.65372 4.00002 2.41638 4.00002C2.17891 4.00002 1.95646 4.09552 1.78972 4.2691L1.25894 4.82151C1.09193 4.99482 1 5.22649 1 5.47338C1 5.72026 1.09193 5.95166 1.25894 6.12511L8.47465 13.6312C8.64192 13.8053 8.86543 13.9007 9.10303 13.9C9.34168 13.9007 9.56493 13.8055 9.73233 13.6312L16.9411 6.1321C17.1081 5.95865 17.2 5.72725 17.2 5.48023C17.2 5.23334 17.1081 5.00194 16.9411 4.82836L16.4103 4.27609C16.0648 3.91672 15.5024 3.91672 15.1571 4.27609L9.10342 10.5733Z" fill="#FFE03D"/>
</g>
<defs>
<clipPath id="clip0_18_137">
<rect width="18" height="18" fill="white" transform="translate(0 18) rotate(-90)"/>
</clipPath>
</defs>
</svg>
